<svg width="20" height="20" viewBox="0 0 20 20" fill="none" xmlns="http://www.w3.org/2000/svg">
<path d="M16 10.5C14.6641 12.5625 12.5078 14 10 14C7.49219 14 5.33594 12.5625 4 10.5C4.74219 9.35156 5.75781 8.36719 6.97656 7.74219C6.66406 8.27344 6.5 8.88281 6.5 9.5C6.5 11.4297 8.07031 13 10 13C11.9297 13 13.5 11.4297 13.5 9.5C13.5 8.88281 13.3359 8.27344 13.0234 7.74219C14.2422 8.36719 15.2578 9.35156 16 10.5ZM10.375 7.5C10.375 7.70312 10.2031 7.875 10 7.875C9.10938 7.875 8.375 8.60937 8.375 9.5C8.375 9.70312 8.20313 9.875 8 9.875C7.79688 9.875 7.625 9.70312 7.625 9.5C7.625 8.19531 8.69531 7.125 10 7.125C10.2031 7.125 10.375 7.29687 10.375 7.5ZM17 10.5C17 10.3047 16.9375 10.125 16.8438 9.96094C15.4063 7.60156 12.7734 6 10 6C7.22656 6 4.59375 7.60156 3.15625 9.96094C3.0625 10.125 3 10.3047 3 10.5C3 10.6953 3.0625 10.875 3.15625 11.0391C4.59375 13.3984 7.22656 15 10 15C12.7734 15 15.4063 13.4062 16.8438 11.0391C16.9375 10.875 17 10.6953 17 10.5Z" fill="#ADB5BD"/>
</svg>
