<svg width="14" height="20" viewBox="0 0 14 20" fill="none" xmlns="http://www.w3.org/2000/svg">
<path d="M6.99988 7.1875C3.548 7.1875 0.749878 9.98562 0.749878 13.4375C0.749878 16.8894 3.548 19.6875 6.99988 19.6875C10.4518 19.6875 13.2499 16.8894 13.2499 13.4375C13.2499 9.98562 10.4518 7.1875 6.99988 7.1875ZM7.31238 14.3469V16.25H6.68738V14.3469C5.80081 14.1978 5.12488 13.4287 5.12488 12.5C5.12488 11.4644 5.96425 10.625 6.99988 10.625C8.0355 10.625 8.87488 11.4644 8.87488 12.5C8.87488 13.4287 8.19894 14.1978 7.31238 14.3469Z" fill="#ADB5BD"/>
<path d="M3.56277 7.4875V4.375C3.56277 2.47969 5.10496 0.9375 7.00027 0.9375C8.89559 0.9375 10.4378 2.47969 10.4378 4.375H11.0628C11.0628 2.135 9.24027 0.3125 7.00027 0.3125C4.76027 0.3125 2.93777 2.135 2.93777 4.375V7.89562C3.13809 7.74844 3.34684 7.6125 3.56277 7.4875Z" fill="#ADB5BD"/>
</svg>
