<svg width="20" height="20" viewBox="0 0 20 20" fill="none" xmlns="http://www.w3.org/2000/svg">
<circle cx="10" cy="10" r="10" fill="#F5365C"/>
<path d="M16.3879 7.75561C16.3879 7.5603 16.3098 7.36499 16.1692 7.22436L15.1067 6.16186C14.9661 6.02124 14.7708 5.94311 14.5754 5.94311C14.3801 5.94311 14.1848 6.02124 14.0442 6.16186L8.91919 11.2947L6.62231 8.98999C6.48169 8.84936 6.28638 8.77124 6.09106 8.77124C5.89575 8.77124 5.70044 8.84936 5.55981 8.98999L4.49731 10.0525C4.35669 10.1931 4.27856 10.3884 4.27856 10.5837C4.27856 10.7791 4.35669 10.9744 4.49731 11.115L7.32544 13.9431L8.38794 15.0056C8.52856 15.1462 8.72388 15.2244 8.91919 15.2244C9.1145 15.2244 9.30981 15.1462 9.45044 15.0056L10.5129 13.9431L16.1692 8.28686C16.3098 8.14624 16.3879 7.95093 16.3879 7.75561Z" fill="white"/>
</svg>
