<svg width="16" height="17" viewBox="0 0 16 17" fill="none" xmlns="http://www.w3.org/2000/svg">
<path d="M8.46626 13.3608C8.20874 13.2254 7.79152 13.2253 7.53369 13.3608L4.29224 15.0649C3.77658 15.336 3.43801 15.0926 3.53688 14.5161L4.15594 10.9067C4.20512 10.62 4.07635 10.2231 3.86776 10.0198L1.24537 7.46361C0.828197 7.05697 0.95509 6.65974 1.53389 6.57563L5.15794 6.04903C5.44586 6.00719 5.78349 5.76209 5.91241 5.50087L7.53314 2.21693C7.79096 1.69451 8.20796 1.69244 8.46681 2.21693L10.0875 5.50087C10.2163 5.76177 10.5537 6.00714 10.842 6.04903L14.4661 6.57563C15.0426 6.65941 15.1734 7.05536 14.7546 7.46361L12.1322 10.0198C11.9238 10.2229 11.7948 10.6196 11.844 10.9067L12.4631 14.5161C12.5616 15.0903 12.2254 15.3371 11.7077 15.0649L8.46626 13.3608Z" fill="#E9A220"/>
</svg>
